<svg width="169" height="31" viewBox="0 0 169 31" fill="none" xmlns="http://www.w3.org/2000/svg">
<path d="M0.7224 24V2.5488H4.5272V11.1752H13.2192V2.5488H17.024V24H13.2192V14.488H4.5272V24H0.7224ZM29.0316 24.3936C27.5447 24.3936 26.1999 24.0656 24.9972 23.4096C23.7946 22.7317 22.8434 21.7696 22.1436 20.5232C21.4439 19.2549 21.094 17.7352 21.094 15.964C21.094 14.2147 21.4439 12.7059 22.1436 11.4376C22.8652 10.1693 23.7946 9.19627 24.9316 8.5184C26.0687 7.84053 27.2604 7.5016 28.5068 7.5016C29.9719 7.5016 31.1964 7.8296 32.1804 8.4856C33.1644 9.11973 33.9079 10.0163 34.4108 11.1752C34.9138 12.3123 35.1652 13.6352 35.1652 15.144C35.1652 15.9312 35.1106 16.5435 35.0012 16.9808H24.7676C24.9426 18.4021 25.4564 19.5064 26.3092 20.2936C27.162 21.0808 28.2335 21.4744 29.5236 21.4744C30.2234 21.4744 30.8684 21.376 31.4588 21.1792C32.0711 20.9605 32.6724 20.6653 33.2628 20.2936L34.542 22.6552C33.7767 23.1581 32.9239 23.5736 31.9836 23.9016C31.0434 24.2296 30.0594 24.3936 29.0316 24.3936ZM24.7348 14.4224H31.8852C31.8852 13.176 31.6119 12.2029 31.0652 11.5032C30.5186 10.7816 29.6986 10.4208 28.6052 10.4208C27.665 10.4208 26.8231 10.7707 26.0796 11.4704C25.358 12.1483 24.9098 13.1323 24.7348 14.4224ZM42.4414 24.3936C41.1076 24.3936 40.1564 23.9891 39.5878 23.18C39.0412 22.3709 38.7678 21.2667 38.7678 19.8672V0.8432H42.5398V20.064C42.5398 20.5232 42.6273 20.8512 42.8022 21.048C42.9772 21.2229 43.163 21.3104 43.3598 21.3104C43.4473 21.3104 43.5238 21.3104 43.5894 21.3104C43.6769 21.2885 43.7972 21.2667 43.9502 21.2448L44.4422 24.0656C44.2236 24.1531 43.9393 24.2296 43.5894 24.2952C43.2614 24.3608 42.8788 24.3936 42.4414 24.3936ZM47.6725 30.3632V7.8952H50.7885L51.0509 9.6008H51.1821C51.86 9.03227 52.6144 8.54027 53.4453 8.1248C54.2981 7.70933 55.1619 7.5016 56.0365 7.5016C58.0483 7.5016 59.6008 8.24507 60.6941 9.732C61.8093 11.2189 62.3669 13.2088 62.3669 15.7016C62.3669 17.5384 62.0389 19.1128 61.3829 20.4248C60.7269 21.7149 59.8741 22.6989 58.8245 23.3768C57.7968 24.0547 56.6816 24.3936 55.4789 24.3936C54.7792 24.3936 54.0795 24.2405 53.3797 23.9344C52.68 23.6064 52.0021 23.1691 51.3461 22.6224L51.4445 25.312V30.3632H47.6725ZM54.6917 21.2776C55.7632 21.2776 56.6597 20.8075 57.3813 19.8672C58.1029 18.9269 58.4637 17.5493 58.4637 15.7344C58.4637 14.1163 58.1904 12.8589 57.6437 11.9624C57.0971 11.0659 56.2115 10.6176 54.9869 10.6176C53.8499 10.6176 52.6691 11.2189 51.4445 12.4216V19.9328C52.0349 20.4139 52.6035 20.7637 53.1501 20.9824C53.6968 21.1792 54.2107 21.2776 54.6917 21.2776ZM73.0746 24.3936C71.5876 24.3936 70.2428 24.0656 69.0402 23.4096C67.8375 22.7317 66.8863 21.7696 66.1866 20.5232C65.4868 19.2549 65.137 17.7352 65.137 15.964C65.137 14.2147 65.4868 12.7059 66.1866 11.4376C66.9082 10.1693 67.8375 9.19627 68.9746 8.5184C70.1116 7.84053 71.3034 7.5016 72.5498 7.5016C74.0149 7.5016 75.2394 7.8296 76.2234 8.4856C77.2074 9.11973 77.9509 10.0163 78.4538 11.1752C78.9567 12.3123 79.2082 13.6352 79.2082 15.144C79.2082 15.9312 79.1535 16.5435 79.0442 16.9808H68.8106C68.9855 18.4021 69.4994 19.5064 70.3522 20.2936C71.205 21.0808 72.2764 21.4744 73.5666 21.4744C74.2663 21.4744 74.9114 21.376 75.5018 21.1792C76.114 20.9605 76.7154 20.6653 77.3058 20.2936L78.585 22.6552C77.8196 23.1581 76.9668 23.5736 76.0266 23.9016C75.0863 24.2296 74.1023 24.3936 73.0746 24.3936ZM68.7778 14.4224H75.9282C75.9282 13.176 75.6548 12.2029 75.1082 11.5032C74.5615 10.7816 73.7415 10.4208 72.6482 10.4208C71.7079 10.4208 70.866 10.7707 70.1226 11.4704C69.401 12.1483 68.9527 13.1323 68.7778 14.4224ZM82.8108 24V7.8952H85.9268L86.1892 10.0928H86.3204C86.9983 9.3712 87.7308 8.75893 88.518 8.256C89.3271 7.75307 90.2345 7.5016 91.2404 7.5016C92.4212 7.5016 93.3615 7.764 94.0612 8.2888C94.7828 8.79173 95.3295 9.49147 95.7012 10.388C96.4665 9.55707 97.2647 8.86827 98.0956 8.3216C98.9484 7.77493 99.8777 7.5016 100.884 7.5016C102.589 7.5016 103.847 8.0592 104.656 9.1744C105.465 10.2896 105.869 11.864 105.869 13.8976V24H102.064V14.3896C102.064 13.0557 101.857 12.1155 101.441 11.5688C101.048 11.0221 100.435 10.7488 99.6044 10.7488C98.5985 10.7488 97.4724 11.4157 96.226 12.7496V24H92.454V14.3896C92.454 13.0557 92.2463 12.1155 91.8308 11.5688C91.4372 11.0221 90.814 10.7488 89.9612 10.7488C88.9553 10.7488 87.8292 11.4157 86.5828 12.7496V24H82.8108ZM119.113 24.3936C117.254 24.3936 115.614 23.9453 114.193 23.0488C112.772 22.1304 111.656 20.8403 110.847 19.1784C110.06 17.4947 109.667 15.4939 109.667 13.176C109.667 10.8581 110.06 8.8792 110.847 7.2392C111.656 5.5992 112.772 4.34187 114.193 3.4672C115.614 2.59253 117.254 2.1552 119.113 2.1552C120.994 2.1552 122.644 2.59253 124.066 3.4672C125.487 4.34187 126.591 5.5992 127.379 7.2392C128.188 8.8792 128.592 10.8581 128.592 13.176C128.592 15.4939 128.188 17.4947 127.379 19.1784C126.591 20.8403 125.487 22.1304 124.066 23.0488C122.644 23.9453 120.994 24.3936 119.113 24.3936ZM119.113 21.0808C120.797 21.0808 122.142 20.3701 123.147 18.9488C124.153 17.5056 124.656 15.5813 124.656 13.176C124.656 10.7707 124.153 8.89013 123.147 7.5344C122.142 6.1568 120.797 5.468 119.113 5.468C117.429 5.468 116.084 6.1568 115.079 7.5344C114.073 8.89013 113.57 10.7707 113.57 13.176C113.57 15.5813 114.073 17.5056 115.079 18.9488C116.084 20.3701 117.429 21.0808 119.113 21.0808ZM140.919 24.3936C139.279 24.3936 137.847 24.0656 136.623 23.4096C135.398 22.7536 134.447 21.704 133.769 20.2608C133.113 18.8176 132.785 16.9261 132.785 14.5864V2.5488H136.59V14.8816C136.59 16.4341 136.765 17.6696 137.115 18.588C137.486 19.4845 138 20.1296 138.656 20.5232C139.312 20.8949 140.067 21.0808 140.919 21.0808C141.794 21.0808 142.559 20.8949 143.215 20.5232C143.893 20.1296 144.418 19.4845 144.79 18.588C145.183 17.6696 145.38 16.4341 145.38 14.8816V2.5488H149.021V14.5864C149.021 16.9261 148.693 18.8176 148.037 20.2608C147.381 21.704 146.441 22.7536 145.216 23.4096C144.013 24.0656 142.581 24.3936 140.919 24.3936ZM158.706 24V5.7632H152.507V2.5488H168.71V5.7632H162.511V24H158.706Z" fill="#952A2A"/>
</svg>
